<svg width="109" height="26" viewBox="0 0 109 26" fill="none" xmlns="http://www.w3.org/2000/svg">
<mask id="path-1-outside-1_25_103" maskUnits="userSpaceOnUse" x="0" y="-3.05176e-05" width="109" height="26" fill="black">
<rect fill="white" y="-3.05176e-05" width="109" height="26"/>
<path d="M1 24.6162V1.76741H7.99415C13.0513 1.76741 15.5798 3.74416 15.5798 7.69764C15.5798 8.97671 15.2551 10.0814 14.6055 11.0116C13.956 11.9418 13.0745 12.5232 11.961 12.7558C13.2601 12.9418 14.2692 13.5116 14.9883 14.4651C15.7306 15.3953 16.1134 16.6162 16.1366 18.1279C16.1366 22.4535 13.318 24.6162 7.68098 24.6162H1ZM8.20293 21.4767C9.73398 21.4767 10.8243 21.1395 11.4738 20.4651C12.1234 19.7907 12.4481 18.8953 12.4481 17.779C12.4481 16.6395 12.0886 15.8139 11.3694 15.3023C10.6735 14.7907 9.56 14.5349 8.02894 14.5349H4.61886V21.4767H8.20293ZM12.0306 7.97671C12.0306 5.9302 10.7663 4.90695 8.23772 4.90695H4.61886V11.3953H7.95935C10.6735 11.3953 12.0306 10.2558 12.0306 7.97671Z"/>
<path d="M18.5376 16.3488C18.5376 13.5349 19.1639 11.4069 20.4166 9.96509C21.6693 8.49997 23.4091 7.76741 25.6361 7.76741C27.8631 7.76741 29.5797 8.4302 30.786 9.75578C32.0155 11.0581 32.6534 12.9767 32.6998 15.5116L32.5607 18.093H22.4C22.6088 20.6046 23.8615 21.8604 26.158 21.8604C27.7587 21.8604 29.4521 21.5697 31.2384 20.9883L31.9691 24.0232C31.2268 24.279 30.2641 24.5 29.081 24.686C27.8979 24.8953 26.9236 25 26.158 25C21.0777 25 18.5376 22.1162 18.5376 16.3488ZM25.7753 11.0116C24.685 11.0116 23.8615 11.3372 23.3047 11.9883C22.7712 12.6162 22.4696 13.6744 22.4 15.1628H28.8374C28.8374 12.3953 27.8167 11.0116 25.7753 11.0116Z"/>
<path d="M35.0312 23.8488L35.7967 20.6744C38.0005 21.3721 39.752 21.7209 41.0511 21.7209C42.3501 21.7209 43.2317 21.593 43.6956 21.3372C44.1596 21.1046 44.3915 20.686 44.3915 20.0814C44.3915 19.4767 44.1828 19.0465 43.7652 18.7907C43.3476 18.5349 42.5589 18.2674 41.399 17.9883C39.1024 17.4302 37.5018 16.8139 36.5971 16.1395C35.6924 15.4418 35.24 14.3139 35.24 12.7558C35.24 9.4302 37.3742 7.76741 41.6426 7.76741C43.4752 7.76741 45.5978 8.06974 48.0104 8.67439L47.3493 11.9883C45.0527 11.3372 43.2781 11.0116 42.0254 11.0116C40.7727 11.0116 39.926 11.1279 39.4852 11.3604C39.0676 11.5697 38.8589 11.9418 38.8589 12.4767C38.8589 13.0116 39.0676 13.4069 39.4852 13.6628C39.926 13.8953 41.0395 14.2558 42.8257 14.7442C44.6119 15.2325 45.9226 15.8023 46.7577 16.4535C47.5928 17.0814 48.0104 18.1628 48.0104 19.6976C48.0104 23.2093 45.853 24.9651 41.5382 24.9651C39.52 24.9651 37.351 24.593 35.0312 23.8488Z"/>
<path d="M54.2738 8.04648L54.3434 9.05811C56.2224 8.19764 57.6955 7.76741 58.7626 7.76741C60.6416 7.76741 62.0219 8.32555 62.9034 9.44183C63.8081 10.5349 64.2605 12.2558 64.2605 14.6046V24.6162H60.6764V14.7093C60.6764 13.593 60.4792 12.7209 60.0849 12.093C59.6905 11.4651 59.0758 11.1511 58.2407 11.1511C57.4055 11.1511 56.1181 11.5581 54.3782 12.3721V24.6162H50.7941V8.04648H54.2738Z"/>
<path d="M66.9746 24.6162V21.4069H72.1593V11.2558H67.253V8.04648H75.7434V21.4069H80.6498V24.6162H66.9746ZM73.76 5.6395C73.0641 5.6395 72.5073 5.4302 72.0898 5.0116C71.6954 4.56974 71.4982 3.99997 71.4982 3.3023C71.4982 2.60462 71.707 2.04648 72.1246 1.62788C72.5421 1.20927 73.0989 0.999969 73.7948 0.999969C74.5139 0.999969 75.0591 1.20927 75.4302 1.62788C75.8246 2.02323 76.0218 2.58137 76.0218 3.3023C76.0218 4.02323 75.8246 4.59299 75.4302 5.0116C75.0359 5.4302 74.4791 5.6395 73.76 5.6395Z"/>
<path d="M83.5379 24.6162V1.41858H87.122V14.7093L89.4185 14.4651C90.7176 12.7907 91.8543 10.9767 92.8286 9.02322L93.3158 8.04648H97.213C95.7515 11.1395 94.1277 13.7209 92.3415 15.7907C93.8261 17.9069 95.3224 20.4069 96.8302 23.2907L97.5262 24.6162H93.455C92.3183 22.1511 91.0192 19.7907 89.5577 17.5349L87.122 17.779V24.6162H83.5379Z"/>
<path d="M102.954 24.6162V19.5581H108V24.6162H102.954Z"/>
</mask>
<path d="M1 24.6162V1.76741H7.99415C13.0513 1.76741 15.5798 3.74416 15.5798 7.69764C15.5798 8.97671 15.2551 10.0814 14.6055 11.0116C13.956 11.9418 13.0745 12.5232 11.961 12.7558C13.2601 12.9418 14.2692 13.5116 14.9883 14.4651C15.7306 15.3953 16.1134 16.6162 16.1366 18.1279C16.1366 22.4535 13.318 24.6162 7.68098 24.6162H1ZM8.20293 21.4767C9.73398 21.4767 10.8243 21.1395 11.4738 20.4651C12.1234 19.7907 12.4481 18.8953 12.4481 17.779C12.4481 16.6395 12.0886 15.8139 11.3694 15.3023C10.6735 14.7907 9.56 14.5349 8.02894 14.5349H4.61886V21.4767H8.20293ZM12.0306 7.97671C12.0306 5.9302 10.7663 4.90695 8.23772 4.90695H4.61886V11.3953H7.95935C10.6735 11.3953 12.0306 10.2558 12.0306 7.97671Z" fill="#000228"/>
<path d="M1 24.6162V1.76741H7.99415C13.0513 1.76741 15.5798 3.74416 15.5798 7.69764C15.5798 8.97671 15.2551 10.0814 14.6055 11.0116C13.956 11.9418 13.0745 12.5232 11.961 12.7558C13.2601 12.9418 14.2692 13.5116 14.9883 14.4651C15.7306 15.3953 16.1134 16.6162 16.1366 18.1279C16.1366 22.4535 13.318 24.6162 7.68098 24.6162H1ZM8.20293 21.4767C9.73398 21.4767 10.8243 21.1395 11.4738 20.4651C12.1234 19.7907 12.4481 18.8953 12.4481 17.779C12.4481 16.6395 12.0886 15.8139 11.3694 15.3023C10.6735 14.7907 9.56 14.5349 8.02894 14.5349H4.61886V21.4767H8.20293ZM12.0306 7.97671C12.0306 5.9302 10.7663 4.90695 8.23772 4.90695H4.61886V11.3953H7.95935C10.6735 11.3953 12.0306 10.2558 12.0306 7.97671Z" fill="black" fill-opacity="0.2"/>
<path d="M1 24.6162V1.76741H7.99415C13.0513 1.76741 15.5798 3.74416 15.5798 7.69764C15.5798 8.97671 15.2551 10.0814 14.6055 11.0116C13.956 11.9418 13.0745 12.5232 11.961 12.7558C13.2601 12.9418 14.2692 13.5116 14.9883 14.4651C15.7306 15.3953 16.1134 16.6162 16.1366 18.1279C16.1366 22.4535 13.318 24.6162 7.68098 24.6162H1ZM8.20293 21.4767C9.73398 21.4767 10.8243 21.1395 11.4738 20.4651C12.1234 19.7907 12.4481 18.8953 12.4481 17.779C12.4481 16.6395 12.0886 15.8139 11.3694 15.3023C10.6735 14.7907 9.56 14.5349 8.02894 14.5349H4.61886V21.4767H8.20293ZM12.0306 7.97671C12.0306 5.9302 10.7663 4.90695 8.23772 4.90695H4.61886V11.3953H7.95935C10.6735 11.3953 12.0306 10.2558 12.0306 7.97671Z" fill="black" fill-opacity="0.2"/>
<path d="M18.5376 16.3488C18.5376 13.5349 19.1639 11.4069 20.4166 9.96509C21.6693 8.49997 23.4091 7.76741 25.6361 7.76741C27.8631 7.76741 29.5797 8.4302 30.786 9.75578C32.0155 11.0581 32.6534 12.9767 32.6998 15.5116L32.5607 18.093H22.4C22.6088 20.6046 23.8615 21.8604 26.158 21.8604C27.7587 21.8604 29.4521 21.5697 31.2384 20.9883L31.9691 24.0232C31.2268 24.279 30.2641 24.5 29.081 24.686C27.8979 24.8953 26.9236 25 26.158 25C21.0777 25 18.5376 22.1162 18.5376 16.3488ZM25.7753 11.0116C24.685 11.0116 23.8615 11.3372 23.3047 11.9883C22.7712 12.6162 22.4696 13.6744 22.4 15.1628H28.8374C28.8374 12.3953 27.8167 11.0116 25.7753 11.0116Z" fill="#000228"/>
<path d="M18.5376 16.3488C18.5376 13.5349 19.1639 11.4069 20.4166 9.96509C21.6693 8.49997 23.4091 7.76741 25.6361 7.76741C27.8631 7.76741 29.5797 8.4302 30.786 9.75578C32.0155 11.0581 32.6534 12.9767 32.6998 15.5116L32.5607 18.093H22.4C22.6088 20.6046 23.8615 21.8604 26.158 21.8604C27.7587 21.8604 29.4521 21.5697 31.2384 20.9883L31.9691 24.0232C31.2268 24.279 30.2641 24.5 29.081 24.686C27.8979 24.8953 26.9236 25 26.158 25C21.0777 25 18.5376 22.1162 18.5376 16.3488ZM25.7753 11.0116C24.685 11.0116 23.8615 11.3372 23.3047 11.9883C22.7712 12.6162 22.4696 13.6744 22.4 15.1628H28.8374C28.8374 12.3953 27.8167 11.0116 25.7753 11.0116Z" fill="black" fill-opacity="0.2"/>
<path d="M18.5376 16.3488C18.5376 13.5349 19.1639 11.4069 20.4166 9.96509C21.6693 8.49997 23.4091 7.76741 25.6361 7.76741C27.8631 7.76741 29.5797 8.4302 30.786 9.75578C32.0155 11.0581 32.6534 12.9767 32.6998 15.5116L32.5607 18.093H22.4C22.6088 20.6046 23.8615 21.8604 26.158 21.8604C27.7587 21.8604 29.4521 21.5697 31.2384 20.9883L31.9691 24.0232C31.2268 24.279 30.2641 24.5 29.081 24.686C27.8979 24.8953 26.9236 25 26.158 25C21.0777 25 18.5376 22.1162 18.5376 16.3488ZM25.7753 11.0116C24.685 11.0116 23.8615 11.3372 23.3047 11.9883C22.7712 12.6162 22.4696 13.6744 22.4 15.1628H28.8374C28.8374 12.3953 27.8167 11.0116 25.7753 11.0116Z" fill="black" fill-opacity="0.2"/>
<path d="M35.0312 23.8488L35.7967 20.6744C38.0005 21.3721 39.752 21.7209 41.0511 21.7209C42.3501 21.7209 43.2317 21.593 43.6956 21.3372C44.1596 21.1046 44.3915 20.686 44.3915 20.0814C44.3915 19.4767 44.1828 19.0465 43.7652 18.7907C43.3476 18.5349 42.5589 18.2674 41.399 17.9883C39.1024 17.4302 37.5018 16.8139 36.5971 16.1395C35.6924 15.4418 35.24 14.3139 35.24 12.7558C35.24 9.4302 37.3742 7.76741 41.6426 7.76741C43.4752 7.76741 45.5978 8.06974 48.0104 8.67439L47.3493 11.9883C45.0527 11.3372 43.2781 11.0116 42.0254 11.0116C40.7727 11.0116 39.926 11.1279 39.4852 11.3604C39.0676 11.5697 38.8589 11.9418 38.8589 12.4767C38.8589 13.0116 39.0676 13.4069 39.4852 13.6628C39.926 13.8953 41.0395 14.2558 42.8257 14.7442C44.6119 15.2325 45.9226 15.8023 46.7577 16.4535C47.5928 17.0814 48.0104 18.1628 48.0104 19.6976C48.0104 23.2093 45.853 24.9651 41.5382 24.9651C39.52 24.9651 37.351 24.593 35.0312 23.8488Z" fill="#000228"/>
<path d="M35.0312 23.8488L35.7967 20.6744C38.0005 21.3721 39.752 21.7209 41.0511 21.7209C42.3501 21.7209 43.2317 21.593 43.6956 21.3372C44.1596 21.1046 44.3915 20.686 44.3915 20.0814C44.3915 19.4767 44.1828 19.0465 43.7652 18.7907C43.3476 18.5349 42.5589 18.2674 41.399 17.9883C39.1024 17.4302 37.5018 16.8139 36.5971 16.1395C35.6924 15.4418 35.24 14.3139 35.24 12.7558C35.24 9.4302 37.3742 7.76741 41.6426 7.76741C43.4752 7.76741 45.5978 8.06974 48.0104 8.67439L47.3493 11.9883C45.0527 11.3372 43.2781 11.0116 42.0254 11.0116C40.7727 11.0116 39.926 11.1279 39.4852 11.3604C39.0676 11.5697 38.8589 11.9418 38.8589 12.4767C38.8589 13.0116 39.0676 13.4069 39.4852 13.6628C39.926 13.8953 41.0395 14.2558 42.8257 14.7442C44.6119 15.2325 45.9226 15.8023 46.7577 16.4535C47.5928 17.0814 48.0104 18.1628 48.0104 19.6976C48.0104 23.2093 45.853 24.9651 41.5382 24.9651C39.52 24.9651 37.351 24.593 35.0312 23.8488Z" fill="black" fill-opacity="0.2"/>
<path d="M35.0312 23.8488L35.7967 20.6744C38.0005 21.3721 39.752 21.7209 41.0511 21.7209C42.3501 21.7209 43.2317 21.593 43.6956 21.3372C44.1596 21.1046 44.3915 20.686 44.3915 20.0814C44.3915 19.4767 44.1828 19.0465 43.7652 18.7907C43.3476 18.5349 42.5589 18.2674 41.399 17.9883C39.1024 17.4302 37.5018 16.8139 36.5971 16.1395C35.6924 15.4418 35.24 14.3139 35.24 12.7558C35.24 9.4302 37.3742 7.76741 41.6426 7.76741C43.4752 7.76741 45.5978 8.06974 48.0104 8.67439L47.3493 11.9883C45.0527 11.3372 43.2781 11.0116 42.0254 11.0116C40.7727 11.0116 39.926 11.1279 39.4852 11.3604C39.0676 11.5697 38.8589 11.9418 38.8589 12.4767C38.8589 13.0116 39.0676 13.4069 39.4852 13.6628C39.926 13.8953 41.0395 14.2558 42.8257 14.7442C44.6119 15.2325 45.9226 15.8023 46.7577 16.4535C47.5928 17.0814 48.0104 18.1628 48.0104 19.6976C48.0104 23.2093 45.853 24.9651 41.5382 24.9651C39.52 24.9651 37.351 24.593 35.0312 23.8488Z" fill="black" fill-opacity="0.2"/>
<path d="M54.2738 8.04648L54.3434 9.05811C56.2224 8.19764 57.6955 7.76741 58.7626 7.76741C60.6416 7.76741 62.0219 8.32555 62.9034 9.44183C63.8081 10.5349 64.2605 12.2558 64.2605 14.6046V24.6162H60.6764V14.7093C60.6764 13.593 60.4792 12.7209 60.0849 12.093C59.6905 11.4651 59.0758 11.1511 58.2407 11.1511C57.4055 11.1511 56.1181 11.5581 54.3782 12.3721V24.6162H50.7941V8.04648H54.2738Z" fill="#000228"/>
<path d="M54.2738 8.04648L54.3434 9.05811C56.2224 8.19764 57.6955 7.76741 58.7626 7.76741C60.6416 7.76741 62.0219 8.32555 62.9034 9.44183C63.8081 10.5349 64.2605 12.2558 64.2605 14.6046V24.6162H60.6764V14.7093C60.6764 13.593 60.4792 12.7209 60.0849 12.093C59.6905 11.4651 59.0758 11.1511 58.2407 11.1511C57.4055 11.1511 56.1181 11.5581 54.3782 12.3721V24.6162H50.7941V8.04648H54.2738Z" fill="black" fill-opacity="0.2"/>
<path d="M54.2738 8.04648L54.3434 9.05811C56.2224 8.19764 57.6955 7.76741 58.7626 7.76741C60.6416 7.76741 62.0219 8.32555 62.9034 9.44183C63.8081 10.5349 64.2605 12.2558 64.2605 14.6046V24.6162H60.6764V14.7093C60.6764 13.593 60.4792 12.7209 60.0849 12.093C59.6905 11.4651 59.0758 11.1511 58.2407 11.1511C57.4055 11.1511 56.1181 11.5581 54.3782 12.3721V24.6162H50.7941V8.04648H54.2738Z" fill="black" fill-opacity="0.2"/>
<path d="M66.9746 24.6162V21.4069H72.1593V11.2558H67.253V8.04648H75.7434V21.4069H80.6498V24.6162H66.9746ZM73.76 5.6395C73.0641 5.6395 72.5073 5.4302 72.0898 5.0116C71.6954 4.56974 71.4982 3.99997 71.4982 3.3023C71.4982 2.60462 71.707 2.04648 72.1246 1.62788C72.5421 1.20927 73.0989 0.999969 73.7948 0.999969C74.5139 0.999969 75.0591 1.20927 75.4302 1.62788C75.8246 2.02323 76.0218 2.58137 76.0218 3.3023C76.0218 4.02323 75.8246 4.59299 75.4302 5.0116C75.0359 5.4302 74.4791 5.6395 73.76 5.6395Z" fill="#000228"/>
<path d="M66.9746 24.6162V21.4069H72.1593V11.2558H67.253V8.04648H75.7434V21.4069H80.6498V24.6162H66.9746ZM73.76 5.6395C73.0641 5.6395 72.5073 5.4302 72.0898 5.0116C71.6954 4.56974 71.4982 3.99997 71.4982 3.3023C71.4982 2.60462 71.707 2.04648 72.1246 1.62788C72.5421 1.20927 73.0989 0.999969 73.7948 0.999969C74.5139 0.999969 75.0591 1.20927 75.4302 1.62788C75.8246 2.02323 76.0218 2.58137 76.0218 3.3023C76.0218 4.02323 75.8246 4.59299 75.4302 5.0116C75.0359 5.4302 74.4791 5.6395 73.76 5.6395Z" fill="black" fill-opacity="0.2"/>
<path d="M66.9746 24.6162V21.4069H72.1593V11.2558H67.253V8.04648H75.7434V21.4069H80.6498V24.6162H66.9746ZM73.76 5.6395C73.0641 5.6395 72.5073 5.4302 72.0898 5.0116C71.6954 4.56974 71.4982 3.99997 71.4982 3.3023C71.4982 2.60462 71.707 2.04648 72.1246 1.62788C72.5421 1.20927 73.0989 0.999969 73.7948 0.999969C74.5139 0.999969 75.0591 1.20927 75.4302 1.62788C75.8246 2.02323 76.0218 2.58137 76.0218 3.3023C76.0218 4.02323 75.8246 4.59299 75.4302 5.0116C75.0359 5.4302 74.4791 5.6395 73.76 5.6395Z" fill="black" fill-opacity="0.2"/>
<path d="M83.5379 24.6162V1.41858H87.122V14.7093L89.4185 14.4651C90.7176 12.7907 91.8543 10.9767 92.8286 9.02322L93.3158 8.04648H97.213C95.7515 11.1395 94.1277 13.7209 92.3415 15.7907C93.8261 17.9069 95.3224 20.4069 96.8302 23.2907L97.5262 24.6162H93.455C92.3183 22.1511 91.0192 19.7907 89.5577 17.5349L87.122 17.779V24.6162H83.5379Z" fill="#000228"/>
<path d="M83.5379 24.6162V1.41858H87.122V14.7093L89.4185 14.4651C90.7176 12.7907 91.8543 10.9767 92.8286 9.02322L93.3158 8.04648H97.213C95.7515 11.1395 94.1277 13.7209 92.3415 15.7907C93.8261 17.9069 95.3224 20.4069 96.8302 23.2907L97.5262 24.6162H93.455C92.3183 22.1511 91.0192 19.7907 89.5577 17.5349L87.122 17.779V24.6162H83.5379Z" fill="black" fill-opacity="0.2"/>
<path d="M83.5379 24.6162V1.41858H87.122V14.7093L89.4185 14.4651C90.7176 12.7907 91.8543 10.9767 92.8286 9.02322L93.3158 8.04648H97.213C95.7515 11.1395 94.1277 13.7209 92.3415 15.7907C93.8261 17.9069 95.3224 20.4069 96.8302 23.2907L97.5262 24.6162H93.455C92.3183 22.1511 91.0192 19.7907 89.5577 17.5349L87.122 17.779V24.6162H83.5379Z" fill="black" fill-opacity="0.2"/>
<path d="M102.954 24.6162V19.5581H108V24.6162H102.954Z" fill="#000228"/>
<path d="M102.954 24.6162V19.5581H108V24.6162H102.954Z" fill="black" fill-opacity="0.2"/>
<path d="M102.954 24.6162V19.5581H108V24.6162H102.954Z" fill="black" fill-opacity="0.2"/>
<path d="M1 24.6162V1.76741H7.99415C13.0513 1.76741 15.5798 3.74416 15.5798 7.69764C15.5798 8.97671 15.2551 10.0814 14.6055 11.0116C13.956 11.9418 13.0745 12.5232 11.961 12.7558C13.2601 12.9418 14.2692 13.5116 14.9883 14.4651C15.7306 15.3953 16.1134 16.6162 16.1366 18.1279C16.1366 22.4535 13.318 24.6162 7.68098 24.6162H1ZM8.20293 21.4767C9.73398 21.4767 10.8243 21.1395 11.4738 20.4651C12.1234 19.7907 12.4481 18.8953 12.4481 17.779C12.4481 16.6395 12.0886 15.8139 11.3694 15.3023C10.6735 14.7907 9.56 14.5349 8.02894 14.5349H4.61886V21.4767H8.20293ZM12.0306 7.97671C12.0306 5.9302 10.7663 4.90695 8.23772 4.90695H4.61886V11.3953H7.95935C10.6735 11.3953 12.0306 10.2558 12.0306 7.97671Z" stroke="black" stroke-width="2" mask="url(#path-1-outside-1_25_103)"/>
<path d="M1 24.6162V1.76741H7.99415C13.0513 1.76741 15.5798 3.74416 15.5798 7.69764C15.5798 8.97671 15.2551 10.0814 14.6055 11.0116C13.956 11.9418 13.0745 12.5232 11.961 12.7558C13.2601 12.9418 14.2692 13.5116 14.9883 14.4651C15.7306 15.3953 16.1134 16.6162 16.1366 18.1279C16.1366 22.4535 13.318 24.6162 7.68098 24.6162H1ZM8.20293 21.4767C9.73398 21.4767 10.8243 21.1395 11.4738 20.4651C12.1234 19.7907 12.4481 18.8953 12.4481 17.779C12.4481 16.6395 12.0886 15.8139 11.3694 15.3023C10.6735 14.7907 9.56 14.5349 8.02894 14.5349H4.61886V21.4767H8.20293ZM12.0306 7.97671C12.0306 5.9302 10.7663 4.90695 8.23772 4.90695H4.61886V11.3953H7.95935C10.6735 11.3953 12.0306 10.2558 12.0306 7.97671Z" stroke="black" stroke-opacity="0.2" stroke-width="2" mask="url(#path-1-outside-1_25_103)"/>
<path d="M1 24.6162V1.76741H7.99415C13.0513 1.76741 15.5798 3.74416 15.5798 7.69764C15.5798 8.97671 15.2551 10.0814 14.6055 11.0116C13.956 11.9418 13.0745 12.5232 11.961 12.7558C13.2601 12.9418 14.2692 13.5116 14.9883 14.4651C15.7306 15.3953 16.1134 16.6162 16.1366 18.1279C16.1366 22.4535 13.318 24.6162 7.68098 24.6162H1ZM8.20293 21.4767C9.73398 21.4767 10.8243 21.1395 11.4738 20.4651C12.1234 19.7907 12.4481 18.8953 12.4481 17.779C12.4481 16.6395 12.0886 15.8139 11.3694 15.3023C10.6735 14.7907 9.56 14.5349 8.02894 14.5349H4.61886V21.4767H8.20293ZM12.0306 7.97671C12.0306 5.9302 10.7663 4.90695 8.23772 4.90695H4.61886V11.3953H7.95935C10.6735 11.3953 12.0306 10.2558 12.0306 7.97671Z" stroke="black" stroke-opacity="0.2" stroke-width="2" mask="url(#path-1-outside-1_25_103)"/>
<path d="M18.5376 16.3488C18.5376 13.5349 19.1639 11.4069 20.4166 9.96509C21.6693 8.49997 23.4091 7.76741 25.6361 7.76741C27.8631 7.76741 29.5797 8.4302 30.786 9.75578C32.0155 11.0581 32.6534 12.9767 32.6998 15.5116L32.5607 18.093H22.4C22.6088 20.6046 23.8615 21.8604 26.158 21.8604C27.7587 21.8604 29.4521 21.5697 31.2384 20.9883L31.9691 24.0232C31.2268 24.279 30.2641 24.5 29.081 24.686C27.8979 24.8953 26.9236 25 26.158 25C21.0777 25 18.5376 22.1162 18.5376 16.3488ZM25.7753 11.0116C24.685 11.0116 23.8615 11.3372 23.3047 11.9883C22.7712 12.6162 22.4696 13.6744 22.4 15.1628H28.8374C28.8374 12.3953 27.8167 11.0116 25.7753 11.0116Z" stroke="black" stroke-width="2" mask="url(#path-1-outside-1_25_103)"/>
<path d="M18.5376 16.3488C18.5376 13.5349 19.1639 11.4069 20.4166 9.96509C21.6693 8.49997 23.4091 7.76741 25.6361 7.76741C27.8631 7.76741 29.5797 8.4302 30.786 9.75578C32.0155 11.0581 32.6534 12.9767 32.6998 15.5116L32.5607 18.093H22.4C22.6088 20.6046 23.8615 21.8604 26.158 21.8604C27.7587 21.8604 29.4521 21.5697 31.2384 20.9883L31.9691 24.0232C31.2268 24.279 30.2641 24.5 29.081 24.686C27.8979 24.8953 26.9236 25 26.158 25C21.0777 25 18.5376 22.1162 18.5376 16.3488ZM25.7753 11.0116C24.685 11.0116 23.8615 11.3372 23.3047 11.9883C22.7712 12.6162 22.4696 13.6744 22.4 15.1628H28.8374C28.8374 12.3953 27.8167 11.0116 25.7753 11.0116Z" stroke="black" stroke-opacity="0.2" stroke-width="2" mask="url(#path-1-outside-1_25_103)"/>
<path d="M18.5376 16.3488C18.5376 13.5349 19.1639 11.4069 20.4166 9.96509C21.6693 8.49997 23.4091 7.76741 25.6361 7.76741C27.8631 7.76741 29.5797 8.4302 30.786 9.75578C32.0155 11.0581 32.6534 12.9767 32.6998 15.5116L32.5607 18.093H22.4C22.6088 20.6046 23.8615 21.8604 26.158 21.8604C27.7587 21.8604 29.4521 21.5697 31.2384 20.9883L31.9691 24.0232C31.2268 24.279 30.2641 24.5 29.081 24.686C27.8979 24.8953 26.9236 25 26.158 25C21.0777 25 18.5376 22.1162 18.5376 16.3488ZM25.7753 11.0116C24.685 11.0116 23.8615 11.3372 23.3047 11.9883C22.7712 12.6162 22.4696 13.6744 22.4 15.1628H28.8374C28.8374 12.3953 27.8167 11.0116 25.7753 11.0116Z" stroke="black" stroke-opacity="0.2" stroke-width="2" mask="url(#path-1-outside-1_25_103)"/>
<path d="M35.0312 23.8488L35.7967 20.6744C38.0005 21.3721 39.752 21.7209 41.0511 21.7209C42.3501 21.7209 43.2317 21.593 43.6956 21.3372C44.1596 21.1046 44.3915 20.686 44.3915 20.0814C44.3915 19.4767 44.1828 19.0465 43.7652 18.7907C43.3476 18.5349 42.5589 18.2674 41.399 17.9883C39.1024 17.4302 37.5018 16.8139 36.5971 16.1395C35.6924 15.4418 35.24 14.3139 35.24 12.7558C35.24 9.4302 37.3742 7.76741 41.6426 7.76741C43.4752 7.76741 45.5978 8.06974 48.0104 8.67439L47.3493 11.9883C45.0527 11.3372 43.2781 11.0116 42.0254 11.0116C40.7727 11.0116 39.926 11.1279 39.4852 11.3604C39.0676 11.5697 38.8589 11.9418 38.8589 12.4767C38.8589 13.0116 39.0676 13.4069 39.4852 13.6628C39.926 13.8953 41.0395 14.2558 42.8257 14.7442C44.6119 15.2325 45.9226 15.8023 46.7577 16.4535C47.5928 17.0814 48.0104 18.1628 48.0104 19.6976C48.0104 23.2093 45.853 24.9651 41.5382 24.9651C39.52 24.9651 37.351 24.593 35.0312 23.8488Z" stroke="black" stroke-width="2" mask="url(#path-1-outside-1_25_103)"/>
<path d="M35.0312 23.8488L35.7967 20.6744C38.0005 21.3721 39.752 21.7209 41.0511 21.7209C42.3501 21.7209 43.2317 21.593 43.6956 21.3372C44.1596 21.1046 44.3915 20.686 44.3915 20.0814C44.3915 19.4767 44.1828 19.0465 43.7652 18.7907C43.3476 18.5349 42.5589 18.2674 41.399 17.9883C39.1024 17.4302 37.5018 16.8139 36.5971 16.1395C35.6924 15.4418 35.24 14.3139 35.24 12.7558C35.24 9.4302 37.3742 7.76741 41.6426 7.76741C43.4752 7.76741 45.5978 8.06974 48.0104 8.67439L47.3493 11.9883C45.0527 11.3372 43.2781 11.0116 42.0254 11.0116C40.7727 11.0116 39.926 11.1279 39.4852 11.3604C39.0676 11.5697 38.8589 11.9418 38.8589 12.4767C38.8589 13.0116 39.0676 13.4069 39.4852 13.6628C39.926 13.8953 41.0395 14.2558 42.8257 14.7442C44.6119 15.2325 45.9226 15.8023 46.7577 16.4535C47.5928 17.0814 48.0104 18.1628 48.0104 19.6976C48.0104 23.2093 45.853 24.9651 41.5382 24.9651C39.52 24.9651 37.351 24.593 35.0312 23.8488Z" stroke="black" stroke-opacity="0.2" stroke-width="2" mask="url(#path-1-outside-1_25_103)"/>
<path d="M35.0312 23.8488L35.7967 20.6744C38.0005 21.3721 39.752 21.7209 41.0511 21.7209C42.3501 21.7209 43.2317 21.593 43.6956 21.3372C44.1596 21.1046 44.3915 20.686 44.3915 20.0814C44.3915 19.4767 44.1828 19.0465 43.7652 18.7907C43.3476 18.5349 42.5589 18.2674 41.399 17.9883C39.1024 17.4302 37.5018 16.8139 36.5971 16.1395C35.6924 15.4418 35.24 14.3139 35.24 12.7558C35.24 9.4302 37.3742 7.76741 41.6426 7.76741C43.4752 7.76741 45.5978 8.06974 48.0104 8.67439L47.3493 11.9883C45.0527 11.3372 43.2781 11.0116 42.0254 11.0116C40.7727 11.0116 39.926 11.1279 39.4852 11.3604C39.0676 11.5697 38.8589 11.9418 38.8589 12.4767C38.8589 13.0116 39.0676 13.4069 39.4852 13.6628C39.926 13.8953 41.0395 14.2558 42.8257 14.7442C44.6119 15.2325 45.9226 15.8023 46.7577 16.4535C47.5928 17.0814 48.0104 18.1628 48.0104 19.6976C48.0104 23.2093 45.853 24.9651 41.5382 24.9651C39.52 24.9651 37.351 24.593 35.0312 23.8488Z" stroke="black" stroke-opacity="0.2" stroke-width="2" mask="url(#path-1-outside-1_25_103)"/>
<path d="M54.2738 8.04648L54.3434 9.05811C56.2224 8.19764 57.6955 7.76741 58.7626 7.76741C60.6416 7.76741 62.0219 8.32555 62.9034 9.44183C63.8081 10.5349 64.2605 12.2558 64.2605 14.6046V24.6162H60.6764V14.7093C60.6764 13.593 60.4792 12.7209 60.0849 12.093C59.6905 11.4651 59.0758 11.1511 58.2407 11.1511C57.4055 11.1511 56.1181 11.5581 54.3782 12.3721V24.6162H50.7941V8.04648H54.2738Z" stroke="black" stroke-width="2" mask="url(#path-1-outside-1_25_103)"/>
<path d="M54.2738 8.04648L54.3434 9.05811C56.2224 8.19764 57.6955 7.76741 58.7626 7.76741C60.6416 7.76741 62.0219 8.32555 62.9034 9.44183C63.8081 10.5349 64.2605 12.2558 64.2605 14.6046V24.6162H60.6764V14.7093C60.6764 13.593 60.4792 12.7209 60.0849 12.093C59.6905 11.4651 59.0758 11.1511 58.2407 11.1511C57.4055 11.1511 56.1181 11.5581 54.3782 12.3721V24.6162H50.7941V8.04648H54.2738Z" stroke="black" stroke-opacity="0.2" stroke-width="2" mask="url(#path-1-outside-1_25_103)"/>
<path d="M54.2738 8.04648L54.3434 9.05811C56.2224 8.19764 57.6955 7.76741 58.7626 7.76741C60.6416 7.76741 62.0219 8.32555 62.9034 9.44183C63.8081 10.5349 64.2605 12.2558 64.2605 14.6046V24.6162H60.6764V14.7093C60.6764 13.593 60.4792 12.7209 60.0849 12.093C59.6905 11.4651 59.0758 11.1511 58.2407 11.1511C57.4055 11.1511 56.1181 11.5581 54.3782 12.3721V24.6162H50.7941V8.04648H54.2738Z" stroke="black" stroke-opacity="0.2" stroke-width="2" mask="url(#path-1-outside-1_25_103)"/>
<path d="M66.9746 24.6162V21.4069H72.1593V11.2558H67.253V8.04648H75.7434V21.4069H80.6498V24.6162H66.9746ZM73.76 5.6395C73.0641 5.6395 72.5073 5.4302 72.0898 5.0116C71.6954 4.56974 71.4982 3.99997 71.4982 3.3023C71.4982 2.60462 71.707 2.04648 72.1246 1.62788C72.5421 1.20927 73.0989 0.999969 73.7948 0.999969C74.5139 0.999969 75.0591 1.20927 75.4302 1.62788C75.8246 2.02323 76.0218 2.58137 76.0218 3.3023C76.0218 4.02323 75.8246 4.59299 75.4302 5.0116C75.0359 5.4302 74.4791 5.6395 73.76 5.6395Z" stroke="black" stroke-width="2" mask="url(#path-1-outside-1_25_103)"/>
<path d="M66.9746 24.6162V21.4069H72.1593V11.2558H67.253V8.04648H75.7434V21.4069H80.6498V24.6162H66.9746ZM73.76 5.6395C73.0641 5.6395 72.5073 5.4302 72.0898 5.0116C71.6954 4.56974 71.4982 3.99997 71.4982 3.3023C71.4982 2.60462 71.707 2.04648 72.1246 1.62788C72.5421 1.20927 73.0989 0.999969 73.7948 0.999969C74.5139 0.999969 75.0591 1.20927 75.4302 1.62788C75.8246 2.02323 76.0218 2.58137 76.0218 3.3023C76.0218 4.02323 75.8246 4.59299 75.4302 5.0116C75.0359 5.4302 74.4791 5.6395 73.76 5.6395Z" stroke="black" stroke-opacity="0.2" stroke-width="2" mask="url(#path-1-outside-1_25_103)"/>
<path d="M66.9746 24.6162V21.4069H72.1593V11.2558H67.253V8.04648H75.7434V21.4069H80.6498V24.6162H66.9746ZM73.76 5.6395C73.0641 5.6395 72.5073 5.4302 72.0898 5.0116C71.6954 4.56974 71.4982 3.99997 71.4982 3.3023C71.4982 2.60462 71.707 2.04648 72.1246 1.62788C72.5421 1.20927 73.0989 0.999969 73.7948 0.999969C74.5139 0.999969 75.0591 1.20927 75.4302 1.62788C75.8246 2.02323 76.0218 2.58137 76.0218 3.3023C76.0218 4.02323 75.8246 4.59299 75.4302 5.0116C75.0359 5.4302 74.4791 5.6395 73.76 5.6395Z" stroke="black" stroke-opacity="0.2" stroke-width="2" mask="url(#path-1-outside-1_25_103)"/>
<path d="M83.5379 24.6162V1.41858H87.122V14.7093L89.4185 14.4651C90.7176 12.7907 91.8543 10.9767 92.8286 9.02322L93.3158 8.04648H97.213C95.7515 11.1395 94.1277 13.7209 92.3415 15.7907C93.8261 17.9069 95.3224 20.4069 96.8302 23.2907L97.5262 24.6162H93.455C92.3183 22.1511 91.0192 19.7907 89.5577 17.5349L87.122 17.779V24.6162H83.5379Z" stroke="black" stroke-width="2" mask="url(#path-1-outside-1_25_103)"/>
<path d="M83.5379 24.6162V1.41858H87.122V14.7093L89.4185 14.4651C90.7176 12.7907 91.8543 10.9767 92.8286 9.02322L93.3158 8.04648H97.213C95.7515 11.1395 94.1277 13.7209 92.3415 15.7907C93.8261 17.9069 95.3224 20.4069 96.8302 23.2907L97.5262 24.6162H93.455C92.3183 22.1511 91.0192 19.7907 89.5577 17.5349L87.122 17.779V24.6162H83.5379Z" stroke="black" stroke-opacity="0.2" stroke-width="2" mask="url(#path-1-outside-1_25_103)"/>
<path d="M83.5379 24.6162V1.41858H87.122V14.7093L89.4185 14.4651C90.7176 12.7907 91.8543 10.9767 92.8286 9.02322L93.3158 8.04648H97.213C95.7515 11.1395 94.1277 13.7209 92.3415 15.7907C93.8261 17.9069 95.3224 20.4069 96.8302 23.2907L97.5262 24.6162H93.455C92.3183 22.1511 91.0192 19.7907 89.5577 17.5349L87.122 17.779V24.6162H83.5379Z" stroke="black" stroke-opacity="0.2" stroke-width="2" mask="url(#path-1-outside-1_25_103)"/>
<path d="M102.954 24.6162V19.5581H108V24.6162H102.954Z" stroke="black" stroke-width="2" mask="url(#path-1-outside-1_25_103)"/>
<path d="M102.954 24.6162V19.5581H108V24.6162H102.954Z" stroke="black" stroke-opacity="0.2" stroke-width="2" mask="url(#path-1-outside-1_25_103)"/>
<path d="M102.954 24.6162V19.5581H108V24.6162H102.954Z" stroke="black" stroke-opacity="0.2" stroke-width="2" mask="url(#path-1-outside-1_25_103)"/>
</svg>
